<svg xmlns="http://www.w3.org/2000/svg" width="15" height="14" viewBox="0 0 15 14">
  <g fill="none" fill-rule="evenodd" transform="translate(-3 -3.912)">
    <polygon points="0 0 22 0 22 22 0 22"/>
    <path fill="#FFF" d="M3.66666667,11 C3.66666667,10.493739 4.07707231,10.0833333 4.58333333,10.0833333 L11,10.0833333 C11.506261,10.0833333 11.9166667,10.493739 11.9166667,11 C11.9166667,11.506261 11.506261,11.9166667 11,11.9166667 L4.58333333,11.9166667 C4.07707231,11.9166667 3.66666667,11.506261 3.66666667,11 Z" opacity=".4"/>
    <path fill="#FFF" d="M10.3518176,15.8518188 L15.2312058,10.9724306 L10.7826075,6.11941424 C10.4405145,5.74622184 10.4657255,5.16636841 10.8389179,4.82427537 C11.2121103,4.48218233 11.7919637,4.50739335 12.1340568,4.88058576 L17.1757234,10.3805858 C17.5073525,10.742363 17.4952107,11.3011505 17.14818,11.6481812 L11.64818,17.1481812 C11.2901994,17.5061618 10.7097982,17.5061618 10.3518176,17.1481812 C9.99383697,16.7902006 9.99383697,16.2097994 10.3518176,15.8518188 Z"/>
  </g>
</svg>
