<svg xmlns="http://www.w3.org/2000/svg" width="24" height="23" viewBox="0 0 24 23">
  <g fill="none" fill-rule="evenodd" transform="translate(-2 -2.4)">
    <polygon points="0 0 28 0 28 28 0 28"/>
    <path fill="#006AFF" d="M21.1687424,13.81786 L20.3550232,18.7001755 C20.354083,18.7058162 20.3531014,18.71145 20.3520785,18.7170763 C20.2368168,19.3510154 19.6294696,19.7714865 18.9955306,19.6562249 L5.73187757,17.2446516 C5.29483193,17.1651888 4.94083341,16.8444307 4.81879931,16.4173114 L2.68986827,8.9660527 C2.66008778,8.86182099 2.64497954,8.75394734 2.64497954,8.64554472 C2.64497954,8.00121251 3.167314,7.47887805 3.81164621,7.47887805 L19.8251493,7.47887805 L20.5405352,4.41293856 C20.6859067,3.78991767 21.2413405,3.34916533 21.8810967,3.34916533 L24.2900958,3.34916533 C25.0503549,3.34916533 25.6666667,3.96547712 25.6666667,4.72573624 C25.6666667,5.48599536 25.0503549,6.10230715 24.2900958,6.10230715 L22.9734444,6.10230715 L21.1687424,13.81786 Z" opacity=".305"/>
    <path fill="#006AFF" d="M7.58333333,24.5 C6.61683502,24.5 5.83333333,23.7164983 5.83333333,22.75 C5.83333333,21.7835017 6.61683502,21 7.58333333,21 C8.54983165,21 9.33333333,21.7835017 9.33333333,22.75 C9.33333333,23.7164983 8.54983165,24.5 7.58333333,24.5 Z M18.0833333,24.5 C17.116835,24.5 16.3333333,23.7164983 16.3333333,22.75 C16.3333333,21.7835017 17.116835,21 18.0833333,21 C19.0498316,21 19.8333333,21.7835017 19.8333333,22.75 C19.8333333,23.7164983 19.0498316,24.5 18.0833333,24.5 Z"/>
  </g>
</svg>
