<svg xmlns="http://www.w3.org/2000/svg" width="58" height="64" viewBox="0 0 58 64">
  <g fill="#006AFF" fill-rule="evenodd" transform="translate(.333 .933)">
    <path d="M26.4157664,57.6514321 C27.8383441,58.0326112 28.6825665,59.494845 28.3013874,60.9174095 C27.9202082,62.3399873 26.4579744,63.1842096 25.03541,62.8030305 C23.6128322,62.4218514 22.7686098,60.9596175 23.1497889,59.5370531 C23.5309681,58.1144753 24.9932019,57.2702529 26.4157664,57.6514321 Z M37.0824464,57.6514321 C38.5050241,58.0326112 39.3492465,59.494845 38.9680674,60.9174095 C38.5868882,62.3399873 37.1246544,63.1842096 35.70209,62.8030305 C34.2795122,62.4218514 33.4352898,60.9596175 33.8164689,59.5370531 C34.1976481,58.1144753 35.6598819,57.2702529 37.0824464,57.6514321 L37.0824464,57.6514321 Z M15.7490864,57.6514321 C17.1716641,58.0326112 18.0158865,59.494845 17.6347074,60.9174095 C17.2535282,62.3399873 15.7912944,63.1842096 14.36873,62.8030305 C12.9461522,62.4218514 12.1019298,60.9596175 12.4831089,59.5370531 C12.8642881,58.1144753 14.3265219,57.2702529 15.7490864,57.6514321 L15.7490864,57.6514321 Z M29.33345,38.666715 C23.4424026,38.666715 18.66677,33.8910824 18.66677,28.000035 C18.66677,22.1089876 23.4424026,17.333355 29.33345,17.333355 C35.2244974,17.333355 40.00013,22.1089876 40.00013,28.000035 C40.00013,33.8910824 35.2244974,38.666715 29.33345,38.666715 L29.33345,38.666715 Z M49.33347,24.00003 L53.33347,24.00003 C55.5426214,24.00003 57.333485,25.7908936 57.333485,28.00003 C57.333485,30.2091764 55.5426214,32.00003 53.33347,32.00003 L49.33347,32.00003 C47.1243336,32.00003 45.33347,30.2091764 45.33347,28.00003 C45.33347,25.7908936 47.1243336,24.00003 49.33347,24.00003 Z M40.1618902,11.6568642 L42.9903147,8.8284377 C44.5524184,7.26633975 47.0850722,7.26633975 48.6471808,8.8284377 C50.2092788,10.3905357 50.2092788,12.9231895 48.6471808,14.4852981 L45.8187506,17.3137283 C44.2566527,18.8758263 41.7239988,18.8758263 40.1618902,17.3137283 C38.5997896,15.7516304 38.5997896,13.2189765 40.1618902,11.6568642 Z M29.333445,-4.26325641e-14 C31.5425914,-4.26325641e-14 33.333455,1.79086357 33.333455,4 L33.333455,8 C33.333455,10.2091514 31.5425914,12.000015 29.333445,12.000015 C27.1243086,12.000015 25.333445,10.2091514 25.333445,8 L25.333445,4 C25.333445,1.79086357 27.1243086,-4.26325641e-14 29.333445,-4.26325641e-14 Z M10.1618527,8.8284377 C11.7239507,7.26633975 14.2566045,7.26633975 15.8187131,8.8284377 L18.6471433,11.6568642 C20.2092413,13.2189659 20.2092413,15.7516197 18.6471433,17.3137283 C17.0850454,18.8758263 14.5523915,18.8758263 12.9902792,17.3137283 L10.1618527,14.4852981 C8.59975475,12.9232002 8.59975475,10.3905463 10.1618527,8.8284377 Z" opacity=".301"/>
    <path d="M7.32574249,49.4468885 C2.91763031,46.5974449 -1.77635684e-14,41.6394387 -1.77635684e-14,35.9999917 C-1.77635684e-14,27.1634206 7.16344895,19.9999717 16.00002,19.9999717 C23.4553893,19.9999717 29.7197971,25.0990714 31.4959594,31.9999867 L38.0000475,31.9999867 C43.5229077,31.9999867 48.00006,36.4771389 48.00006,41.9999992 C48.00006,47.5228594 43.5229077,52.0000117 38.0000475,52.0000117 L14.0000175,52.0000117 C11.4351583,52.0000117 9.0958247,51.0343998 7.32574249,49.4468778 L7.32574249,49.4468885 Z"/>
  </g>
</svg>
