<svg xmlns="http://www.w3.org/2000/svg" width="18" height="12" viewBox="0 0 18 12">
  <g fill="none" fill-rule="evenodd" transform="translate(-2 -5.5)">
    <polygon points="0 0 22 0 22 22 0 22"/>
    <path fill="#1E232C" d="M4.58333333,5.5 L17.4166667,5.5 C18.4291887,5.5 19.25,6.32081129 19.25,7.33333333 L19.25,15.5833333 C19.25,16.5958554 18.4291887,17.4166667 17.4166667,17.4166667 L4.58333333,17.4166667 C3.57081129,17.4166667 2.75,16.5958554 2.75,15.5833333 L2.75,7.33333333 C2.75,6.32081129 3.57081129,5.5 4.58333333,5.5 Z M16.6323897,7.18634279 L11,10.219168 L5.3676103,7.18634279 C5.03329915,7.00632909 4.61635648,7.13141189 4.43634279,7.46572304 C4.25632909,7.80003419 4.38141189,8.21697685 4.71572304,8.39699055 L10.6740564,11.6053239 C10.8775401,11.714892 11.1224599,11.714892 11.3259436,11.6053239 L17.284277,8.39699055 C17.6185881,8.21697685 17.7436709,7.80003419 17.5636572,7.46572304 C17.3836435,7.13141189 16.9667009,7.00632909 16.6323897,7.18634279 Z"/>
  </g>
</svg>
