<?xml version="1.0" encoding="UTF-8"?>
<svg width="16px" height="15px" viewBox="0 0 16 15" version="1.1" xmlns="http://www.w3.org/2000/svg" xmlns:xlink="http://www.w3.org/1999/xlink">
    <!-- Generator: sketchtool 56.3 (101010) - https://sketch.com -->
    <title>0392E7DE-67E0-4964-8744-C6DF855EC1DC</title>
    <desc>Created with sketchtool.</desc>
    <g id="Page-1" stroke="none" stroke-width="1" fill="none" fill-rule="evenodd">
        <g id="Desktop-HD" transform="translate(-1335.000000, -466.000000)">
            <g id="Group" transform="translate(1264.000000, 213.000000)">
                <g id="Input/Regular/Regular" transform="translate(52.000000, 237.000000)">
                    <g id="Input/Regular/Icon" transform="translate(0.000000, 0.500000)">
                        <g id="Stacked-Group" transform="translate(16.000000, 11.000000)">
                            <g id="SDL-Stockholm-/-Clothes-/-Cap" transform="translate(0.000000, 1.000000)">
                                <polygon id="bound" points="0 0 22 0 22 22 0 22"></polygon>
                                <path d="M10.9219523,12.9641785 L12.9423093,10.9438216 C13.5003031,10.3858278 13.6386363,9.53338018 13.2857301,8.82756765 L13.1712565,8.59862049 C12.8183502,7.89280796 12.9566834,7.04036031 13.5146772,6.48236651 L16.0197477,3.97729614 C16.198738,3.79830585 16.4889386,3.79830585 16.6679289,3.97729614 C16.7027628,4.01213008 16.7317532,4.05235202 16.7537841,4.09641385 L17.7657618,6.12036926 C18.5399369,7.66871935 18.2364735,9.53874479 17.0123953,10.762823 L11.5134718,16.2617463 C10.1810606,17.5941574 8.21020767,18.0594127 6.42259044,17.4635403 L4.20931745,16.7257827 C3.96917676,16.6457358 3.8393951,16.3861725 3.91944199,16.1460318 C3.94194286,16.0785292 3.97985109,16.0171924 4.03016456,15.9668789 L6.46049709,13.5365464 C7.0184909,12.9785526 7.87093858,12.8402194 8.57675113,13.1931257 L8.8056983,13.3075993 C9.51151085,13.6605055 10.3639585,13.5221723 10.9219523,12.9641785 L10.9219523,12.9641785 Z" id="Path-76" fill="#1E232C"></path>
                            </g>
                        </g>
                    </g>
                </g>
            </g>
        </g>
    </g>
</svg>