<svg xmlns="http://www.w3.org/2000/svg" width="172" height="51" viewBox="0 0 172 51">
  <path fill="#FFF" fill-rule="evenodd" d="M8.08937788 7.65558994L15.1560763 4.26325641e-14 22.2211009 7.65558994 15.1560763 15.3111799 8.08937788 7.65558994zM32.9337939 16.4190826L40.0004923 8.7634927 47.0655169 16.4190826 40.0004923 24.0746726 32.9337939 16.4190826zM7.46069873e-14 34.570374L7.0666984 26.914784 14.131723 34.570374 7.0666984 42.2259639 7.46069873e-14 34.570374zM24.8439139 43.3338667L31.9106123 35.6782767 38.9773107 43.3338667 31.9106123 50.9894566 24.8439139 43.3338667zM7.78977129 25.4819448L7.78977129 9.54700298 14.4313296 16.7438378 14.4313296 32.6787796 7.78977129 25.4819448zM32.6338526 34.2454375L32.6338526 18.3104957 39.2770847 25.5073305 39.2770847 41.440459 32.6338526 34.2454375zM16.901996 15.6355724L23.5452281 8.43873757 38.2527314 8.43873757 31.6111731 15.6355724 16.901996 15.6355724zM8.81261814 42.5492684L15.4558502 35.3542469 30.1633535 35.3542469 23.5217952 42.5492684 8.81261814 42.5492684zM55.8762431 31.439C56.8575967 32.5570449 58.2527501 33.1702973 59.6982541 33.119 60.2967322 33.1455329 60.8900209 32.9922245 61.4087514 32.677 61.8295003 32.4244756 62.0848714 31.9495852 62.0739448 31.44 62.1128788 31.0618241 61.9633797 30.6893198 61.6786298 30.455 61.3529254 30.2455713 60.9779444 30.1364408 60.5962652 30.14L58.4533923 29.94C57.5288932 29.8809285 56.6521247 29.4877796 55.9712707 28.827 55.2965855 28.1476546 54.9320787 27.1958086 54.9706298 26.214 54.9099761 25.0385305 55.4006615 23.9064224 56.2839116 23.184 57.2087923 22.481854 58.330651 22.1262423 59.4701878 22.174 59.9720879 22.1697474 60.4735101 22.2076108 60.9697238 22.287 61.3938398 22.3658843 61.8104387 22.484352 62.2145856 22.641 62.9455729 22.961558 63.6201628 23.4091256 64.2101657 23.965L62.718232 25.87C62.2599338 25.5097124 61.7638013 25.206053 61.2396022 24.965 60.6736431 24.7431456 60.0730851 24.635271 59.4692376 24.647 58.9044109 24.5865458 58.337905 24.7435766 57.874674 25.089 57.5616501 25.3737799 57.3871358 25.7917578 57.3995359 26.227 57.3879676 26.5317899 57.5238911 26.8220018 57.7606409 26.998 58.1128896 27.2915043 58.5467907 27.4555309 58.996 27.465L60.998232 27.629C62.0307406 27.6245936 63.0181882 28.0736571 63.722674 28.868 64.2641487 29.646876 64.5391309 30.5957018 64.5028508 31.56 64.5357684 32.7331659 63.9985154 33.843166 63.0774365 34.505 62.0254747 35.2515012 60.7773855 35.631704 59.5091492 35.592 57.5129978 35.5807302 55.6026065 34.7366694 54.197105 33.245L55.8762431 31.439zM67.3166188 22.338L69.7369724 22.338 69.7369724 30.149C69.6936892 30.9086527 69.9407082 31.6550031 70.4230718 32.222 70.868745 32.7179137 71.4947733 32.9894353 72.1430718 32.968 72.7888866 32.9911088 73.4126231 32.7190783 73.8535691 32.222 74.328443 31.6511095 74.5704986 30.9063459 74.5273149 30.149L74.5273149 22.338 76.9476685 22.338 76.9476685 35.438 74.5254144 35.438 74.5254144 34.038 74.4788508 34.038C73.7315878 35.0483668 72.572472 35.6248424 71.3562431 35.591 70.3452435 35.5687301 69.3794423 35.1459109 68.6517569 34.407 67.7403819 33.5657343 67.2479075 32.3296962 67.3166188 31.056L67.3166188 22.338zM80.5112044 22.338L82.931558 22.338 82.931558 23.7C83.7079782 22.738153 84.8444586 22.1805311 86.0437127 22.173 87.3341855 22.1129882 88.5615018 22.7633014 89.2841547 23.89 89.641399 24.3616503 89.8767573 24.9224467 89.9674033 25.518 90.1103128 26.639051 90.1684622 27.770268 90.1413039 28.901 90.1666662 30.0147505 90.108519 31.1288713 89.9674033 32.233 89.8730656 32.8356459 89.6375975 33.4040832 89.2822541 33.887 88.9444329 34.397035 88.494123 34.8132606 87.9699227 35.1 87.3752995 35.426996 86.7136723 35.595908 86.0427624 35.592 85.4621774 35.6021236 84.8893945 35.4503137 84.3826298 35.152 83.8423737 34.8738332 83.3515446 34.5000638 82.931558 34.047L82.931558 40.747 80.5112044 40.747 80.5112044 22.338zM85.3139006 32.968C85.7906716 32.994911 86.2642089 32.8712898 86.6737459 32.613 86.9953929 32.3838824 87.2430191 32.0570194 87.3836022 31.676 87.5440574 31.2538784 87.6495431 30.810866 87.6971934 30.359 87.7123978 29.8856667 87.72 29.4 87.72 28.902 87.72 28.378 87.7123978 27.868 87.6971934 27.369 87.6535096 26.916393 87.5478872 26.4728068 87.3836022 26.052 87.2518794 25.6657009 87.0022581 25.3362045 86.6737459 25.115 86.2558154 24.8825296 85.7860275 24.7730151 85.3139006 24.798 84.8577318 24.7724873 84.405797 24.9014589 84.0243757 25.166 83.6956133 25.4039185 83.4407759 25.7385247 83.2917127 26.128 83.1406772 26.5431043 83.0431978 26.97764 83.0018785 27.42 82.9556317 27.91 82.9321915 28.404 82.931558 28.902 82.9317649 29.3673098 82.9552375 29.8322859 83.0018785 30.295 83.0404806 30.7501547 83.1379937 31.1976257 83.2917127 31.625 83.441008 32.0146012 83.6957768 32.349465 84.0243757 32.588 84.4029967 32.8600293 84.8560925 32.9935485 85.3139006 32.968zM95.0827403 29.885C95.0234715 30.7740792 95.3281221 31.6474274 95.9199337 32.285 96.461734 32.8507858 97.2032709 33.1530626 97.9658785 33.119 98.9779016 33.1065384 99.9373709 32.6427716 100.605746 31.843L102.360906 33.472C101.286762 34.8267376 99.6928402 35.6044999 98.0162431 35.592 97.3859635 35.5936992 96.7592481 35.4924958 96.158453 35.292 95.849584 35.1794055 95.5535113 35.0311691 95.2756464 34.85 94.971303 34.6892162 94.6866656 34.4900884 94.428 34.257 93.8665277 33.6877612 93.4406616 32.9870989 93.1850387 32.212 92.8017836 31.1664278 92.6239838 30.0499314 92.6623867 28.93 92.6329668 27.8334049 92.7863809 26.7398672 93.1156685 25.699 93.3565835 24.9287577 93.7526867 24.2223306 94.2769061 23.628 94.7287803 23.1343048 95.2811042 22.7547994 95.8923757 22.518 96.4495077 22.2965092 97.0396304 22.181045 97.6351823 22.177 98.9403517 22.1631131 100.197531 22.6942396 101.131249 23.654 102.135676 24.7362211 102.669554 26.2077235 102.606077 27.719L102.606077 29.888 95.0827403 29.885zM100.182873 27.716C100.211625 26.869915 99.9406965 26.0427539 99.4226519 25.395 98.4150814 24.3975706 96.8438799 24.3975706 95.8363094 25.395 95.3313683 26.0504881 95.0621854 26.8723196 95.0760884 27.716L100.182873 27.716zM105.545282 22.338L107.965635 22.338 107.965635 23.726 108.01695 23.726C108.691016 22.8475569 109.674375 22.2937792 110.74285 22.1909116 111.811325 22.0880441 112.87385 22.4448542 113.688199 23.18L111.920685 25.456C111.479212 25.0471092 110.915015 24.8148617 110.327072 24.8 109.734201 24.7885824 109.161182 25.0248212 108.733459 25.457 108.193316 25.996061 107.911496 26.7617021 107.965635 27.543L107.965635 35.443 105.545282 35.443 105.545282 22.338zM115.105061 17.036L117.526365 17.036 117.526365 32.071C117.526365 32.671 117.829186 32.971 118.434829 32.971L119.273923 32.971 119.273923 35.444 118.193459 35.444C117.408119 35.4775566 116.635922 35.2242365 116.007823 34.727 115.350771 34.1090476 115.014174 33.1976929 115.10221 32.275L115.105061 17.036zM120.839028 28.877C120.805616 27.8046128 120.911115 26.7324314 121.152619 25.69 121.347161 25.0057972 121.689288 24.3781426 122.152309 23.856 122.539699 23.3744802 123.013394 22.9779385 123.546365 22.689 124.253101 22.3340178 125.028863 22.1576661 125.811823 22.174 126.610547 22.1545049 127.402563 22.3315378 128.124796 22.691 128.644281 22.9832004 129.102549 23.3824657 129.472287 23.865 129.956848 24.3721627 130.30788 25.0031069 130.490983 25.696 130.714393 26.7392774 130.811774 27.8080574 130.780818 28.877 130.812945 29.9373868 130.715537 30.9977254 130.490983 32.032 130.299816 32.7368328 129.94894 33.3823085 129.468486 33.913 129.297547 34.1225117 129.106475 34.3128576 128.89832 34.481 128.671901 34.7096007 128.408286 34.8935236 128.120044 35.024 127.408394 35.4178353 126.612775 35.6133772 125.808972 35.592 124.419794 35.5963507 123.092588 34.987265 122.150409 33.913 121.69368 33.3682397 121.353128 32.7268538 121.151669 32.032 120.909196 31.0006291 120.803978 29.938825 120.839028 28.877zM128.360464 28.902C128.37658 28.2157549 128.33748 27.5293055 128.24358 26.85 128.172997 26.4513105 128.009767 26.0771937 127.768442 25.761 127.575365 25.4507876 127.299711 25.2073168 126.975912 25.061 126.613215 24.8770648 126.214348 24.7859218 125.811823 24.795 125.417454 24.7914377 125.02749 24.8824029 124.671492 25.061 124.349483 25.2203505 124.069769 25.4607767 123.857105 25.761 123.639859 26.0894736 123.485569 26.4593772 123.402873 26.85 123.290349 27.5188413 123.243223 28.1980524 123.262232 28.877 123.243012 29.5469967 123.290146 30.2172783 123.402873 30.877 123.485877 31.2833266 123.639902 31.6698869 123.857105 32.017 124.089137 32.2891219 124.364788 32.5162394 124.671492 32.688 125.025162 32.8749521 125.416054 32.97059 125.811823 32.967 126.215771 32.9763617 126.615657 32.8805202 126.975912 32.688 127.28432 32.5293047 127.555104 32.3000443 127.768442 32.017 128.010151 31.6818186 128.172975 31.2911539 128.24358 30.877 128.336977 30.222817 128.376086 29.5613205 128.360464 28.9L128.360464 28.902zM126.354431 16.885L129.545459 16.885 126.169127 20.645 124.173547 20.645 126.354431 16.885zM140.341547 34.073C139.569611 35.0394654 138.43007 35.5958298 137.230343 35.592 136.545305 35.6028465 135.870656 35.4149796 135.280376 35.049 134.806934 34.7797929 134.385397 34.4199656 134.037414 33.988 133.703296 33.5200688 133.469839 32.9812948 133.353215 32.409 133.166146 31.2503179 133.09259 30.0744894 133.133702 28.9 133.092418 27.7035585 133.166282 26.5057914 133.354166 25.325 133.470549 24.7605496 133.704202 24.2302008 134.038365 23.772 134.375149 23.318022 134.79856 22.9433102 135.281326 22.672 136.996118 21.7318869 139.101501 22.1736655 140.342497 23.734L140.342497 22.338 142.762851 22.338 142.762851 35.125C142.895868 36.6473413 142.396543 38.1558018 141.39353 39.2617151 140.390517 40.3676283 138.981903 40.9628439 137.53063 40.894 135.894723 40.8605746 134.359651 40.0554463 133.349414 38.701L135.230011 37.077C135.548052 37.3958018 135.907718 37.6651865 136.298122 37.877 136.687117 38.1154046 137.125524 38.2503073 137.575293 38.27 138.307974 38.3057932 139.024676 38.037153 139.570873 37.522 140.087151 36.9588491 140.363633 36.1989903 140.336796 35.417L140.341547 34.073zM135.553105 28.9C135.537079 29.5938398 135.568838 30.2879897 135.648133 30.977 135.686822 31.3366548 135.81827 31.6783194 136.028243 31.965 136.228537 32.2348501 136.482493 32.4553353 136.772309 32.611 137.49975 33.0864974 138.42056 33.0864974 139.148 32.611 139.428386 32.4510369 139.673772 32.230966 139.868309 31.965 140.080889 31.6770305 140.220801 31.3371574 140.275028 30.977 140.334068 30.2865093 140.357542 29.5931614 140.345348 28.9 140.357189 28.1898616 140.333716 27.4795575 140.275028 26.772 140.224154 26.4183708 140.083655 26.0857057 139.868309 25.809 139.667863 25.5341804 139.424252 25.297438 139.148 25.109 138.407478 24.6844899 137.512832 24.6844899 136.772309 25.109 136.486222 25.2932329 136.234145 25.5303806 136.028243 25.809 135.815616 26.0845048 135.683568 26.419044 135.648133 26.772 135.569297 27.4781299 135.537544 28.1892021 135.553105 28.9zM145.973834 17.036L148.395138 17.036 148.395138 19.661 145.973834 19.661 145.973834 17.036zM145.973834 22.336L148.395138 22.336 148.395138 35.436 145.973834 35.436 145.973834 22.336zM160.667956 33.332C160.146551 33.9794993 159.516103 34.5202153 158.808265 34.927 158.049744 35.36609 157.197553 35.5949311 156.331845 35.592 154.934691 35.6026278 153.589334 35.0360391 152.584906 34.014 151.471182 32.962 150.898799 31.258 150.867757 28.902 150.898799 26.52 151.471816 24.7946667 152.586807 23.726 153.590717 22.704243 154.940223 22.1456963 156.336597 22.174 157.196335 22.1718134 158.043885 22.3879273 158.807315 22.804 159.5239 23.2192966 160.155294 23.7797305 160.665105 24.453L158.875735 26.179C158.321632 25.3246995 157.405911 24.8090925 156.423072 24.798 154.362873 24.7653333 153.317569 26.132 153.28716 28.898 153.318203 31.65 154.363506 33.0053333 156.423072 32.964 157.40643 32.9687816 158.326782 32.4552464 158.874785 31.596L160.667956 33.332zM169.029436 34.28L168.982873 34.28C168.75608 34.7278442 168.385685 35.0765167 167.937569 35.264 167.323016 35.5099249 166.667297 35.6215274 166.010409 35.592 164.867783 35.6544839 163.74835 35.2368756 162.898254 34.431 162.13816 33.7072778 161.717874 32.6692058 161.74842 31.591 161.71713 30.5737002 162.077227 29.5861494 162.74716 28.852 163.53062 28.0628422 164.590277 27.6514237 165.673061 27.716L169.029436 27.716 169.029436 26.334C169.044641 25.176 168.221068 24.6136667 166.558718 24.647 166.076224 24.6277555 165.594151 24.6953952 165.133304 24.847 164.768277 25.0081178 164.465366 25.29377 164.273304 25.658L162.372751 24.079C163.332704 22.7530575 164.868889 22.0337459 166.447536 22.171 167.720743 22.0880261 168.987892 22.413718 170.081392 23.105 171.05527 23.9147196 171.574651 25.1872624 171.462144 26.488L171.462144 35.438 169.04179 35.438 169.029436 34.28zM169.029436 29.885L166.119691 29.885C164.70758 29.919 164.010711 30.4453333 164.029083 31.464 164.029594 31.9127338 164.232337 32.334614 164.575492 32.601 165.071999 32.995137 165.690511 33.1798787 166.309746 33.119 167.047817 33.1931966 167.791309 33.0581936 168.463072 32.728 168.843182 32.45 169.033238 31.8166667 169.033238 30.828L169.029436 29.885z"/>
</svg>
