<svg xmlns="http://www.w3.org/2000/svg" width="28" height="29" viewBox="0 0 28 29">
  <g fill="none" fill-rule="evenodd" transform="translate(-10 -9.5)">
    <polygon points="0 0 48 0 48 48 0 48"/>
    <path fill="#FFF" d="M10,24 C10,22.8954305 10.8954305,22 12,22 L36,22 C37.1045695,22 38,22.8954305 38,24 C38,25.1045695 37.1045695,26 36,26 L12,26 C10.8954305,26 10,25.1045695 10,24 Z" opacity=".4"/>
    <path fill="#FFF" d="M22.5857838,34.5857864 L33.2317217,23.9398485 L23.5256891,13.3514493 C22.7793043,12.5372113 22.8343101,11.2720765 23.6485481,10.5256917 C24.4627861,9.7793069 25.7279208,9.83431276 26.4743056,10.6485507 L37.4743056,22.6485507 C38.19786,23.4378828 38.1713688,24.6570557 37.4142109,25.4142136 L25.4142109,37.4142136 C24.6331623,38.1952621 23.3668324,38.1952621 22.5857838,37.4142136 C21.8047352,36.633165 21.8047352,35.366835 22.5857838,34.5857864 Z"/>
  </g>
</svg>
