<svg xmlns="http://www.w3.org/2000/svg" width="28" height="29" viewBox="0 0 28 29">
  <g fill="none" fill-rule="evenodd" transform="translate(-10 -9.5)">
    <polygon points="0 0 48 0 48 48 0 48"/>
    <path fill="#FFF" d="M38,24 C38,25.1045695 37.1045695,26 36,26 L12,26 C10.8954305,26 10,25.1045695 10,24 C10,22.8954305 10.8954305,22 12,22 L36,22 C37.1045695,22 38,22.8954305 38,24 Z" opacity=".4"/>
    <path fill="#FFF" d="M25.4142162,34.5857864 C26.1952648,35.366835 26.1952648,36.633165 25.4142162,37.4142136 C24.6331676,38.1952621 23.3668377,38.1952621 22.5857891,37.4142136 L10.5857891,25.4142136 C9.8286312,24.6570557 9.80213996,23.4378828 10.5256944,22.6485507 L21.5256944,10.6485507 C22.2720792,9.83431276 23.5372139,9.7793069 24.3514519,10.5256917 C25.1656899,11.2720765 25.2206957,12.5372113 24.4743109,13.3514493 L14.7682783,23.9398485 L25.4142162,34.5857864 Z"/>
  </g>
</svg>
